<?xml version="1.0" encoding="UTF-8" standalone="no"?>
<!-- Generator: Adobe Illustrator 18.0.0, SVG Export Plug-In . SVG Version: 6.00 Build 0)  -->

<svg
   xmlns:dc="http://purl.org/dc/elements/1.1/"
   xmlns:cc="http://creativecommons.org/ns#"
   xmlns:rdf="http://www.w3.org/1999/02/22-rdf-syntax-ns#"
   xmlns:svg="http://www.w3.org/2000/svg"
   xmlns="http://www.w3.org/2000/svg"
   xmlns:sodipodi="http://sodipodi.sourceforge.net/DTD/sodipodi-0.dtd"
   xmlns:inkscape="http://www.inkscape.org/namespaces/inkscape"
   version="1.1"
   id="Capa_1"
   x="0px"
   y="0px"
   viewBox="0 0 400 400"
   xml:space="preserve"
   inkscape:version="0.91 r13725"
   sodipodi:docname="pear.svg"
   width="400"
   height="400"><metadata
     id="metadata10540"><rdf:RDF><cc:Work
         rdf:about=""><dc:format>image/svg+xml</dc:format><dc:type
           rdf:resource="http://purl.org/dc/dcmitype/StillImage" /><dc:title></dc:title></cc:Work></rdf:RDF></metadata><defs
     id="defs10538" /><sodipodi:namedview
     pagecolor="#ffffff"
     bordercolor="#666666"
     borderopacity="1"
     objecttolerance="10"
     gridtolerance="10"
     guidetolerance="10"
     inkscape:pageopacity="0"
     inkscape:pageshadow="2"
     inkscape:window-width="1280"
     inkscape:window-height="666"
     id="namedview10536"
     showgrid="false"
     inkscape:zoom="0.62552181"
     inkscape:cx="188.6425"
     inkscape:cy="188.6425"
     inkscape:window-x="-8"
     inkscape:window-y="-8"
     inkscape:window-maximized="1"
     inkscape:current-layer="layer26" /><g
     id="g10506"
     transform="translate(0,22.714996)" /><g
     id="g10508"
     transform="translate(0,22.714996)" /><g
     id="g10510"
     transform="translate(0,22.714996)" /><g
     id="g10512"
     transform="translate(0,22.714996)" /><g
     id="g10514"
     transform="translate(0,22.714996)" /><g
     id="g10516"
     transform="translate(0,22.714996)" /><g
     id="g10518"
     transform="translate(0,22.714996)" /><g
     id="g10520"
     transform="translate(0,22.714996)" /><g
     id="g10522"
     transform="translate(0,22.714996)" /><g
     id="g10524"
     transform="translate(0,22.714996)" /><g
     id="g10526"
     transform="translate(0,22.714996)" /><g
     id="g10528"
     transform="translate(0,22.714996)" /><g
     id="g10530"
     transform="translate(0,22.714996)" /><g
     id="g10532"
     transform="translate(0,22.714996)" /><g
     id="g10534"
     transform="translate(0,22.714996)" /><g
     inkscape:groupmode="layer"
     id="layer26"
     inkscape:label="Bg"><rect
       style="fill:#ffffff;fill-opacity:1;stroke:none;stroke-width:5.00600004;stroke-linecap:butt;stroke-linejoin:miter;stroke-miterlimit:4;stroke-dasharray:none;stroke-opacity:1"
       id="rect13478"
       width="400"
       height="400"
       x="0"
       y="0" /></g><g
     inkscape:groupmode="layer"
     id="layer27"
     inkscape:label="Fruit"><g
       style=""
       id="g10422"
       transform="matrix(1.1663848,0,0,1.0602045,-20.027411,7.4904266e-4)"><g
         id="g10424"><g
           id="g10426"><path
             style="fill:#84bd93"
             d="m 178.006,51.106 c -0.041,-0.036 -0.088,-0.07 -0.13,-0.106 0.041,0.036 0.089,0.071 0.13,0.106 z"
             id="path10428"
             inkscape:connector-curvature="0" /><path
             style="fill:#84bd93"
             d="m 176.564,50.024 c 0.083,0.054 0.158,0.109 0.238,0.164 -0.08,-0.054 -0.155,-0.11 -0.238,-0.164 z"
             id="path10430"
             inkscape:connector-curvature="0" /><path
             style="fill:#84bd93"
             d="m 174.818,49.057 c 0.111,0.053 0.224,0.106 0.33,0.16 -0.107,-0.054 -0.219,-0.106 -0.33,-0.16 z"
             id="path10432"
             inkscape:connector-curvature="0" /><path
             style="fill:#84bd93"
             d="m 179.744,53.095 c 0.051,0.078 0.094,0.156 0.141,0.234 -0.047,-0.078 -0.09,-0.155 -0.141,-0.234 z"
             id="path10434"
             inkscape:connector-curvature="0" /><path
             style="fill:#84bd93"
             d="m 180.276,54.046 c 0.035,0.073 0.077,0.148 0.109,0.221 -0.032,-0.073 -0.073,-0.147 -0.109,-0.221 z"
             id="path10436"
             inkscape:connector-curvature="0" /><path
             style="fill:#84bd93"
             d="m 172.941,48.272 c 0.03,0.011 0.065,0.021 0.095,0.031 -0.03,-0.011 -0.065,-0.02 -0.095,-0.031 z"
             id="path10438"
             inkscape:connector-curvature="0" /><path
             style="fill:#84bd93"
             d="m 178.897,52 c 0.068,0.077 0.137,0.154 0.201,0.231 -0.064,-0.077 -0.132,-0.154 -0.201,-0.231 z"
             id="path10440"
             inkscape:connector-curvature="0" /><path
             style="fill:#84bd93"
             d="m 118.698,52.976 c -0.569,-0.305 -1.095,-0.605 -1.598,-0.901 0.502,0.297 1.029,0.596 1.598,0.901 z"
             id="path10442"
             inkscape:connector-curvature="0" /><path
             style="fill:#84bd93"
             d="m 170.468,47.534 c 0.142,0.035 0.276,0.073 0.414,0.11 -0.138,-0.036 -0.272,-0.074 -0.414,-0.11 z"
             id="path10444"
             inkscape:connector-curvature="0" /><path
             style="fill:#84bd93"
             d="m 124.894,55.941 c -0.918,-0.398 -1.799,-0.794 -2.641,-1.187 0.842,0.394 1.722,0.79 2.641,1.187 z"
             id="path10446"
             inkscape:connector-curvature="0" /><path
             style="fill:#84bd93"
             d="m 180.622,54.884 c -2.185,-0.792 -4.95,-1.406 -8.452,-1.721 -3.963,-0.357 -8.86,-0.754 -14.205,-0.754 -14.483,0 -26.177,1.761 -32.76,3.67 10.346,4.442 25.031,8.951 36.879,10.43 2.278,0.285 4.4,0.429 6.306,0.429 11.59,0 12.206,-4.929 12.613,-8.19 0.015,-0.135 0.346,-1.8 -0.381,-3.864 z"
             id="path10448"
             inkscape:connector-curvature="0" /><path
             style="fill:#84bd93"
             d="m 121.419,54.354 c -0.657,-0.316 -1.287,-0.629 -1.887,-0.939 0.6,0.31 1.229,0.623 1.887,0.939 z"
             id="path10450"
             inkscape:connector-curvature="0" /><path
             style="fill:#84bd93"
             d="m 116.444,51.69 c -0.669,-0.412 -1.285,-0.815 -1.804,-1.2 0.52,0.385 1.136,0.788 1.804,1.2 z"
             id="path10452"
             inkscape:connector-curvature="0" /><path
             style="fill:#84bd93"
             d="m 167.514,46.948 c 0.173,0.027 0.35,0.053 0.519,0.082 -0.169,-0.029 -0.346,-0.055 -0.519,-0.082 z"
             id="path10454"
             inkscape:connector-curvature="0" /></g><g
           id="g10456"><path
             style="fill:#fdd44b"
             d="m 199.037,111.188 c 0.305,0.049 0.607,0.101 0.907,0.155 -0.3,-0.054 -0.602,-0.106 -0.907,-0.155 z"
             id="path10458"
             inkscape:connector-curvature="0" /><path
             style="fill:#fdd44b"
             d="m 193.763,110.592 c 0.26,0.018 0.526,0.031 0.783,0.052 -0.258,-0.021 -0.523,-0.034 -0.783,-0.052 z"
             id="path10460"
             inkscape:connector-curvature="0" /><path
             style="fill:#fdd44b"
             d="m 92.491,289.001 c -0.039,-0.543 -0.092,-1.075 -0.121,-1.625 0.029,0.55 0.082,1.082 0.121,1.625 z"
             id="path10462"
             inkscape:connector-curvature="0" /><path
             style="fill:#fdd44b"
             d="m 93.005,294.144 c -0.08,-0.613 -0.166,-1.221 -0.233,-1.843 0.068,0.622 0.153,1.23 0.233,1.843 z"
             id="path10464"
             inkscape:connector-curvature="0" /><path
             style="fill:#fdd44b"
             d="m 204.05,112.252 c 0.252,0.068 0.493,0.149 0.741,0.221 -0.248,-0.073 -0.489,-0.153 -0.741,-0.221 z"
             id="path10466"
             inkscape:connector-curvature="0" /><path
             style="fill:#fdd44b"
             d="m 220.12,121.615 c -0.233,-0.247 -0.457,-0.506 -0.696,-0.744 0.239,0.238 0.463,0.497 0.696,0.744 z"
             id="path10468"
             inkscape:connector-curvature="0" /><path
             style="fill:#fdd44b"
             d="m 224.662,127.664 c 0.222,0.371 0.446,0.739 0.658,1.122 -0.212,-0.384 -0.436,-0.752 -0.658,-1.122 z"
             id="path10470"
             inkscape:connector-curvature="0" /><path
             style="fill:#fdd44b"
             d="m 208.38,113.697 c 0.153,0.061 0.315,0.113 0.467,0.176 -0.152,-0.062 -0.314,-0.115 -0.467,-0.176 z"
             id="path10472"
             inkscape:connector-curvature="0" /><path
             style="fill:#fdd44b"
             d="m 93.763,298.902 c -0.117,-0.614 -0.231,-1.23 -0.335,-1.854 0.104,0.625 0.218,1.24 0.335,1.854 z"
             id="path10474"
             inkscape:connector-curvature="0" /><path
             style="fill:#fdd44b"
             d="m 212.217,115.513 c 0.284,0.156 0.573,0.306 0.851,0.469 -0.278,-0.163 -0.567,-0.314 -0.851,-0.469 z"
             id="path10476"
             inkscape:connector-curvature="0" /><path
             style="fill:#fdd44b"
             d="m 222.097,123.916 c 0.221,0.283 0.45,0.557 0.664,0.85 -0.214,-0.292 -0.442,-0.567 -0.664,-0.85 z"
             id="path10478"
             inkscape:connector-curvature="0" /><path
             style="fill:#fdd44b"
             d="m 215.976,117.913 c 0.293,0.218 0.579,0.443 0.863,0.671 -0.285,-0.227 -0.571,-0.454 -0.863,-0.671 z"
             id="path10480"
             inkscape:connector-curvature="0" /><path
             style="fill:#fdd44b"
             d="m 111.344,333.854 c -0.363,-0.385 -0.714,-0.783 -1.069,-1.177 0.355,0.393 0.706,0.792 1.069,1.177 z"
             id="path10482"
             inkscape:connector-curvature="0" /><path
             style="fill:#fdd44b"
             d="m 94.757,303.41 c -0.149,-0.587 -0.287,-1.184 -0.423,-1.781 0.136,0.597 0.274,1.194 0.423,1.781 z"
             id="path10484"
             inkscape:connector-curvature="0" /><path
             style="fill:#fdd44b"
             d="m 113.175,335.707 c 0.321,0.316 0.633,0.643 0.96,0.952 -0.327,-0.309 -0.639,-0.636 -0.96,-0.952 z"
             id="path10486"
             inkscape:connector-curvature="0" /><path
             style="fill:#fdd44b"
             d="m 258.521,223.536 c -12.503,-14.9 -25.431,-30.306 -25.431,-53.933 0,-17.672 -2.438,-30.991 -7.612,-40.503 -6.558,-4.086 -14.89,-6.035 -25.184,-6.035 -31.154,0 -44.447,17.705 -44.447,59.2 0,23.627 -12.928,39.034 -25.431,53.933 -13.646,16.263 -26.536,31.623 -26.536,58.73 0,18.247 4.967,32.852 13.138,44.327 19.171,16.344 46.581,22.988 71.626,22.988 44.476,0 96.414,-20.946 96.414,-79.978 -10e-4,-27.106 -12.891,-42.467 -26.537,-58.729 z"
             id="path10488"
             inkscape:connector-curvature="0" /><path
             style="fill:#fdd44b"
             d="m 106.196,327.704 c -0.332,-0.447 -0.661,-0.896 -0.983,-1.352 0.322,0.456 0.651,0.905 0.983,1.352 z"
             id="path10490"
             inkscape:connector-curvature="0" /><path
             style="fill:#fdd44b"
             d="m 108.694,330.87 c -0.355,-0.423 -0.702,-0.854 -1.048,-1.287 0.346,0.433 0.693,0.864 1.048,1.287 z"
             id="path10492"
             inkscape:connector-curvature="0" /><path
             style="fill:#fdd44b"
             d="m 103.847,324.328 c -0.295,-0.452 -0.594,-0.901 -0.879,-1.363 0.285,0.462 0.584,0.911 0.879,1.363 z"
             id="path10494"
             inkscape:connector-curvature="0" /><path
             style="fill:#fdd44b"
             d="m 95.975,307.702 c -0.171,-0.535 -0.324,-1.085 -0.484,-1.629 0.16,0.544 0.314,1.093 0.484,1.629 z"
             id="path10496"
             inkscape:connector-curvature="0" /><path
             style="fill:#fdd44b"
             d="m 97.412,311.798 c -0.166,-0.429 -0.313,-0.876 -0.472,-1.312 0.159,0.436 0.305,0.883 0.472,1.312 z"
             id="path10498"
             inkscape:connector-curvature="0" /><path
             style="fill:#fdd44b"
             d="m 101.617,320.655 c -0.234,-0.414 -0.478,-0.819 -0.704,-1.241 0.226,0.421 0.47,0.826 0.704,1.241 z"
             id="path10500"
             inkscape:connector-curvature="0" /><path
             style="fill:#fdd44b"
             d="m 99.204,315.999 c -0.048,-0.103 -0.103,-0.201 -0.151,-0.304 0.048,0.103 0.103,0.201 0.151,0.304 z"
             id="path10502"
             inkscape:connector-curvature="0" /></g></g><path
         style="fill:#3f2d20"
         d="m 270.043,213.868 c -11.758,-14.012 -21.912,-26.113 -21.912,-44.265 0,-24.164 -4.482,-41.901 -13.702,-54.226 -8.678,-11.6 -21.529,-18.207 -38.266,-19.693 l 0,-50.082 c 0.068,-2.689 0.279,-31.545 -20.968,-44.501 -3.544,-2.164 -8.173,-1.042 -10.336,2.506 -2.162,3.546 -1.041,8.174 2.506,10.336 7.923,4.832 11.289,13.887 12.718,21.017 -3.689,-1.477 -8.184,-2.626 -13.646,-3.309 -4.557,-0.569 -10.113,-0.869 -16.07,-0.869 -11.175,0 -22.534,1.035 -31.162,2.841 -8.588,1.798 -20.143,5.282 -21.324,14.748 -1.058,8.472 6.812,15.761 24.765,22.939 11.999,4.799 26.747,8.772 37.572,10.125 2.895,0.361 5.644,0.544 8.17,0.544 5.13,0 9.314,-0.757 12.733,-2.012 l 0,15.719 c -16.737,1.487 -29.588,8.091 -38.266,19.691 -9.22,12.325 -13.702,30.062 -13.702,54.226 0,18.152 -10.154,30.252 -21.912,44.265 -14.088,16.788 -30.056,35.817 -30.056,68.397 0,29.424 11.523,54.006 33.325,71.086 19.7,15.434 47.447,23.934 78.131,23.934 30.684,0 58.432,-8.5 78.131,-23.934 21.802,-17.08 33.324,-41.662 33.324,-71.086 0.003,-32.581 -15.965,-51.609 -30.053,-68.397 z m -151.279,9.668 c 12.503,-14.9 25.432,-30.306 25.432,-53.933 0,-41.495 13.293,-59.2 44.447,-59.2 31.154,0 44.447,17.705 44.447,59.2 0,23.627 12.928,39.033 25.431,53.933 13.646,16.263 26.536,31.623 26.536,58.729 0,59.032 -51.938,79.979 -96.414,79.979 -44.476,0 -96.414,-20.947 -96.414,-79.979 -0.001,-27.106 12.889,-42.467 26.535,-58.729 z M 164.572,46.578 c 18.645,1.678 16.472,11.829 16.429,12.17 -0.407,3.261 -1.024,8.19 -12.613,8.19 -1.906,0 -4.028,-0.144 -6.306,-0.429 -17.088,-2.134 -40.101,-10.57 -47.443,-16.019 5.555,-2.244 18.735,-4.666 35.727,-4.666 5.346,0 10.243,0.397 14.206,0.754 z"
         id="path10504"
         inkscape:connector-curvature="0" /></g></g></svg>